<svg xmlns="http://www.w3.org/2000/svg" width="72.3" height="34.3" viewBox="0 0 72.3 34.3"><title>link-lives</title><path d="M25.9,3.8a.5.5,0,0,0,.7,0l.4-.5c.5-1.1-.4-1.2-.8-.8a1.8,1.8,0,0,0-.5.7A.5.5,0,0,0,25.9,3.8Z" transform="translate(0 0)" fill="#231f20"/><path d="M55.1,11.2h-.5l-.4.3-1.2.5-2.1.6a2.4,2.4,0,0,1-1.5-.2,4.3,4.3,0,0,1-1.3-1,7.8,7.8,0,0,0,2.3-.4,5.5,5.5,0,0,0,2-1.1l.3-.4.2-.5a.7.7,0,0,0,0-.4l-.3-.4a1.7,1.7,0,0,0-1-.2l-1.1.3-1,.6-.9.6-.7.4-.6.4L49,6.6l.7-.6.7-.6,1.1-1.1,1.1-1.1.4-.4.4-.5.3-.5a1.5,1.5,0,0,0,.2-.5.6.6,0,0,0-.1-.5L53.3.6h-.9a3.2,3.2,0,0,0-1.1.8l-.8,1.1L49.4,4.4l-.9,1.8-.5.5L44.9,9l-2.7,1.7-1.3.7-1.3.6-.4.2-.6.2-.7.2h-.5l.2-.4.3-.4.3-.4.2-.2.7-.8.6-.8a1.3,1.3,0,0,0,.2-.7.8.8,0,0,0-.2-.5l-.5-.3h-.7a9.5,9.5,0,0,0-2.1.9l-2,1.2-.8.4-.8.4.4-.9.3-.5a.6.6,0,0,0,.1-.6q-.2-.4-.9-.2l-1.6.6-1.7.9-.8.5-.7.3-.9.5-.6.3-1.2.4H23.8a1,1,0,0,1-.1-1l.3-1,.3-.6a1.5,1.5,0,0,0,.3-.6q.1-.5-.2-.6h-.7l-.9.3-.6.3L19.1,11h-.3l-1.8.7-1.8.5H13.9a2.3,2.3,0,0,1,0-.8,4.7,4.7,0,0,1,.2-.9l.3-.9.3-.8a29.9,29.9,0,0,0,3.2-2.9,24.4,24.4,0,0,0,2.7-3.3l.4-.5.5-.6.3-.6a1,1,0,0,0,0-.7.6.6,0,0,0-.7-.4l-.8.3A4.3,4.3,0,0,0,19,1.3l-1,1.3L17,4.1,16,5.5,15,7.1,14,8.8,12.3,10l-1.8,1c-.3.1-.3.3-.2.4a.5.5,0,0,0,.5.2l2.6-1.6a9.8,9.8,0,0,0-.5,1.5,3.9,3.9,0,0,0-.1.7,1.8,1.8,0,0,0,.1.7,1,1,0,0,0,.4.5H14l1-.3,1-.4,3.6-1.4.5-.3h0l.5-.2,1.3-.6,1.4-.5-.3,1.2a5.1,5.1,0,0,0-.1,1.2,1.7,1.7,0,0,0,.3.9.8.8,0,0,0,.9.3l1.4-.5,1.4-.7.5-.2.8-.4.4-.3.3-.2.4-.3.9-.4.9-.4.5-.2.7-.2v.9l-.2.4-.3.6a1,1,0,0,0-.4.5.6.6,0,0,0,0,.4l.2.2H32a7.2,7.2,0,0,1,1.7-1.3l1.8-1,1.6-.7,1.7-.5a2.8,2.8,0,0,1-.6.9l-.6.7-.4.4-.4.5-.3.5a1,1,0,0,0-.1.6q0,.6.4.8h.9l1.1-.4.8-.4.8-.4,1.5-.8h.1L44,10.4l1.3-.9,1.2-.9,1.2-.9-.3.5-.8,1.4L45.8,11l-1,1.4-.2.3a.4.4,0,0,0,0,.4q.2.5.4.4l.5-.3.3-.3.2-.3.5-.6.6-.6.6.7.6.7a3,3,0,0,0,1.3.8H51l1.4-.4,1.4-.7.9-.5h.5a.3.3,0,0,0,.2-.3A.4.4,0,0,0,55.1,11.2ZM51,3.2A5,5,0,0,1,52.3,2l-.7,1-.8.9-.9.9A10.3,10.3,0,0,1,51,3.2ZM16.1,6.7l.6-1L17.9,4l1.3-1.5.6-.6.8-.6-.2.5-.2.4-1,1.5a24.5,24.5,0,0,1-2.6,3l-.6.5-.6.5Zm32.2,3.8L49,10l.8-.4.7-.3h1.1a4.6,4.6,0,0,1-1.5,1.1,4.7,4.7,0,0,1-1.8.4h-.3Z" transform="translate(0 0)" fill="#231f20"/><polygon points="4.1 18.9 0 18.9 0 34 11.6 34 11.6 30.7 4.1 30.7 4.1 18.9" fill="#231f20"/><rect x="15.6" y="18.9" width="4.1" height="15.12" fill="#231f20"/><polygon points="31.6 29 31.5 29 27.7 18.9 23.5 18.9 29.3 34 33.6 34 39.4 18.9 35.3 18.9 31.6 29" fill="#231f20"/><polygon points="47.1 28.1 53 28.1 53 24.8 47.1 24.8 47.1 22.3 54.8 22.3 54.8 18.9 43.1 18.9 43.1 34 55 34 55 30.7 47.1 30.7 47.1 28.1" fill="#231f20"/><path d="M67.7,24.8l-2.9-.5c-.9-.2-1.5-.4-1.5-1.1s.8-1.4,2.1-1.4,2.7.7,2.8,2.3H72c-.1-3.4-2.3-5.4-6.5-5.4s-6.2,1.8-6.2,4.9,1.7,4,4.2,4.5l2.8.5c1.2.2,2,.4,2,1.2s-.9,1.3-2.3,1.3-3.1-.6-3.3-2.5H58.9c0,3.6,2.9,5.6,7,5.6s6.3-1.6,6.3-4.8S70.8,25.4,67.7,24.8Z" transform="translate(0 0)" fill="#231f20"/><path d="M57.6,10.1H56.4c-.4,0-.3.4-.1.5h1.4c.3,0,.8,0,.8-.4S57.9,10.1,57.6,10.1Z" transform="translate(0 0)" fill="#231f20"/></svg>