<svg width="149" height="50" viewBox="0 0 149 50" version="1.1" xmlns="http://www.w3.org/2000/svg"><g id="Page-1" stroke="none" stroke-width="1" fill="none" fill-rule="evenodd"><path d="M.836 15.94v-7.6c6.688 0 9.88-2.28 11.628-7.296h8.892V49H9.804V15.94H.836zm51.552-4.484H28.98V1.12h35.948v8.816C52.54 22.324 51.324 33.876 51.248 49H38.632c.228-15.884 4.104-27.056 13.756-37.544zm36.504-2.888c-3.952 0-6.612 2.128-6.612 6.08 0 3.8 2.66 5.852 6.612 5.852 4.104 0 6.764-2.052 6.764-5.852 0-3.952-2.66-6.08-6.764-6.08zm0 19.912c-4.864 0-7.752 2.204-7.752 6.308 0 4.18 2.888 6.46 7.752 6.46 4.94 0 7.752-2.28 7.752-6.46 0-4.104-2.812-6.308-7.752-6.308zm0 21.432c-12.312 0-19.38-5.396-19.38-13.908 0-6.08 3.8-10.336 9.044-11.628-4.864-1.976-7.524-5.32-7.524-10.868 0-8.284 7.372-13.3 17.86-13.3s17.86 5.016 17.86 13.3c0 5.548-2.66 8.892-7.524 10.868 5.244 1.292 9.044 5.548 9.044 11.628 0 8.512-7.068 13.908-19.38 13.908zm46.992-38.456h-23.408V1.12h35.948v8.816C136.036 22.324 134.82 33.876 134.744 49h-12.616c.228-15.884 4.104-27.056 13.756-37.544z" id="1787" fill="#D4A96C" fill-rule="nonzero"/></g></svg>