<?xml version="1.0" encoding="UTF-8"?>
<svg width="160px" height="50px" viewBox="0 0 160 50" version="1.1" xmlns="http://www.w3.org/2000/svg" xmlns:xlink="http://www.w3.org/1999/xlink">
    <!-- Generator: Sketch 55.2 (78181) - https://sketchapp.com -->
    <title>1968</title>
    <desc>Created with Sketch.</desc>
    <g id="Page-1" stroke="none" stroke-width="1" fill="none" fill-rule="evenodd">
        <path d="M0.948,16.928 L0.948,8.416 C7.636,8.416 10.98,6.136 12.728,1.12 L22.836,1.12 L22.836,49 L9.916,49 L9.916,16.928 L0.948,16.928 Z M49.232,39.652 C54.552,39.652 57.668,34.864 58.124,27.872 C55.92,30.608 51.968,32.28 47.332,32.28 C36.844,32.28 30.612,25.896 30.612,16.776 C30.612,6.44 38.44,0.208 49.308,0.208 C62.76,0.208 69.98,9.632 69.98,24.832 C69.98,39.424 62.912,49.912 49.004,49.912 C38.668,49.912 31.98,44.516 31.068,34.94 L43.076,34.712 C43.456,37.98 45.66,39.652 49.232,39.652 Z M56.072,16.472 C56.072,12.9 53.64,10.316 49.536,10.316 C45.28,10.316 42.848,12.824 42.848,16.472 C42.848,20.272 45.28,22.78 49.536,22.78 C53.64,22.78 56.072,20.272 56.072,16.472 Z M96.376,10.468 C91.056,10.468 87.94,15.256 87.484,22.248 C89.688,19.512 93.64,17.84 98.276,17.84 C108.764,17.84 114.996,24.224 114.996,33.344 C114.996,43.68 107.168,49.912 96.3,49.912 C82.848,49.912 75.628,40.488 75.628,25.288 C75.628,10.696 82.696,0.208 96.604,0.208 C106.94,0.208 113.628,5.604 114.54,15.18 L102.532,15.408 C102.152,12.14 99.948,10.468 96.376,10.468 Z M89.536,33.648 C89.536,37.22 91.968,39.804 96.072,39.804 C100.328,39.804 102.76,37.296 102.76,33.648 C102.76,29.848 100.328,27.34 96.072,27.34 C91.968,27.34 89.536,29.848 89.536,33.648 Z M139.796,9.556 C136.3,9.556 134.096,11.456 134.096,14.876 C134.096,18.144 136.3,19.892 139.796,19.892 C143.368,19.892 145.648,18.144 145.648,14.876 C145.648,11.456 143.368,9.556 139.796,9.556 Z M139.796,28.784 C135.54,28.784 132.956,30.76 132.956,34.484 C132.956,38.208 135.54,40.26 139.796,40.26 C144.052,40.26 146.56,38.208 146.56,34.484 C146.56,30.76 144.052,28.784 139.796,28.784 Z M139.796,49.912 C127.18,49.912 120.036,44.516 120.036,35.928 C120.036,29.924 123.608,25.592 128.852,24.224 C124.064,22.248 121.48,19.056 121.48,13.508 C121.48,5.224 129.004,0.208 139.796,0.208 C150.512,0.208 158.036,5.224 158.036,13.508 C158.036,19.056 155.452,22.248 150.664,24.224 C155.908,25.592 159.48,29.924 159.48,35.928 C159.48,44.516 152.336,49.912 139.796,49.912 Z" id="1968" fill="#D4A96C" fill-rule="nonzero"></path>
    </g>
</svg>