<?xml version="1.0" encoding="UTF-8"?>
<svg width="149px" height="50px" viewBox="0 0 149 50" version="1.1" xmlns="http://www.w3.org/2000/svg" xmlns:xlink="http://www.w3.org/1999/xlink">
    <!-- Generator: Sketch 55.2 (78181) - https://sketchapp.com -->
    <title>1787</title>
    <desc>Created with Sketch.</desc>
    <g id="Page-1" stroke="none" stroke-width="1" fill="none" fill-rule="evenodd">
        <path d="M0.836,15.94 L0.836,8.34 C7.524,8.34 10.716,6.06 12.464,1.044 L21.356,1.044 L21.356,49 L9.804,49 L9.804,15.94 L0.836,15.94 Z M52.388,11.456 L28.98,11.456 L28.98,1.12 L64.928,1.12 L64.928,9.936 C52.54,22.324 51.324,33.876 51.248,49 L38.632,49 C38.86,33.116 42.736,21.944 52.388,11.456 Z M88.892,8.568 C84.94,8.568 82.28,10.696 82.28,14.648 C82.28,18.448 84.94,20.5 88.892,20.5 C92.996,20.5 95.656,18.448 95.656,14.648 C95.656,10.696 92.996,8.568 88.892,8.568 Z M88.892,28.48 C84.028,28.48 81.14,30.684 81.14,34.788 C81.14,38.968 84.028,41.248 88.892,41.248 C93.832,41.248 96.644,38.968 96.644,34.788 C96.644,30.684 93.832,28.48 88.892,28.48 Z M88.892,49.912 C76.58,49.912 69.512,44.516 69.512,36.004 C69.512,29.924 73.312,25.668 78.556,24.376 C73.692,22.4 71.032,19.056 71.032,13.508 C71.032,5.224 78.404,0.208 88.892,0.208 C99.38,0.208 106.752,5.224 106.752,13.508 C106.752,19.056 104.092,22.4 99.228,24.376 C104.472,25.668 108.272,29.924 108.272,36.004 C108.272,44.516 101.204,49.912 88.892,49.912 Z M135.884,11.456 L112.476,11.456 L112.476,1.12 L148.424,1.12 L148.424,9.936 C136.036,22.324 134.82,33.876 134.744,49 L122.128,49 C122.356,33.116 126.232,21.944 135.884,11.456 Z" id="1787" fill="#D4A96C" fill-rule="nonzero"></path>
    </g>
</svg>