<svg width="619" height="198" viewBox="0 0 619 198" version="1.1" xmlns="http://www.w3.org/2000/svg"><g id="Mockups-003" stroke="none" stroke-width="1" fill="none" fill-rule="evenodd"><g id="Forside" transform="translate(-743 -2836)" fill="#5D887E"><g id="Group-9" transform="translate(743 2836)"><path id="Rectangle" opacity=".238" transform="matrix(1 0 0 -1 0 253)" d="M118 126h136v1H118zm156 0h208v1H274z"/><path id="Rectangle" opacity=".238" transform="matrix(1 0 0 -1 0 31)" d="M18 15h85v1H18z"/><path id="Rectangle" opacity=".238" d="M75 182h95v1H75z"/><path id="Rectangle" opacity=".238" transform="matrix(-1 0 0 1 843 0)" d="M367 183h109v1H367z"/><path id="Rectangle" opacity=".238" d="M224 73h134v1H224zm150 0h67v1h-67zm97 0h110v1H471zM80 73h118v1H80z"/><circle id="Oval" opacity=".4" cx="99" cy="127" r="19"/><circle id="Oval" opacity=".2" cx="600" cy="74" r="19"/><circle id="Oval" opacity=".3" cx="264" cy="126" r="10"/><circle id="Oval" opacity=".4" cx="456" cy="74" r="15"/><circle id="Oval" opacity=".2" cx="211" cy="73" r="13"/><circle id="Oval" opacity=".7" cx="495" cy="127" r="13"/><circle id="Oval" opacity=".2" cx="185" cy="182" r="15"/><circle id="Oval" opacity=".4" cx="366" cy="73" r="8"/><circle id="Oval" opacity=".5" cx="70" cy="72" r="10"/><circle id="Oval" opacity=".5" cx="118" cy="15" r="15"/><circle id="Oval" opacity=".2" cx="9" cy="15" r="9"/><circle id="Oval" opacity=".5" cx="352" cy="183" r="15"/><circle id="Oval" opacity=".1" cx="486" cy="183" r="10"/><circle id="Oval" opacity=".682" cx="65" cy="182" r="10"/></g></g></g></svg>