<?xml version="1.0" encoding="UTF-8"?>
<svg width="619px" height="198px" viewBox="0 0 619 198" version="1.1" xmlns="http://www.w3.org/2000/svg" xmlns:xlink="http://www.w3.org/1999/xlink">
    <!-- Generator: Sketch 55.2 (78181) - https://sketchapp.com -->
    <title>Group 9</title>
    <desc>Created with Sketch.</desc>
    <g id="Mockups-003" stroke="none" stroke-width="1" fill="none" fill-rule="evenodd">
        <g id="Forside" transform="translate(-743.000000, -2836.000000)" fill="#5D887E">
            <g id="Group-9" transform="translate(743.000000, 2836.000000)">
                <rect id="Rectangle" opacity="0.238071987" transform="translate(186.000000, 126.500000) scale(1, -1) translate(-186.000000, -126.500000) " x="118" y="126" width="136" height="1"></rect>
                <rect id="Rectangle" opacity="0.238071987" transform="translate(378.000000, 126.500000) scale(1, -1) translate(-378.000000, -126.500000) " x="274" y="126" width="208" height="1"></rect>
                <rect id="Rectangle" opacity="0.238071987" transform="translate(60.500000, 15.500000) scale(1, -1) translate(-60.500000, -15.500000) " x="18" y="15" width="85" height="1"></rect>
                <rect id="Rectangle" opacity="0.238071987" x="75" y="182" width="95" height="1"></rect>
                <rect id="Rectangle" opacity="0.238071987" transform="translate(421.500000, 183.500000) scale(1, -1) rotate(180.000000) translate(-421.500000, -183.500000) " x="367" y="183" width="109" height="1"></rect>
                <rect id="Rectangle" opacity="0.238071987" x="224" y="73" width="134" height="1"></rect>
                <rect id="Rectangle" opacity="0.238071987" x="374" y="73" width="67" height="1"></rect>
                <rect id="Rectangle" opacity="0.238071987" x="471" y="73" width="110" height="1"></rect>
                <rect id="Rectangle" opacity="0.238071987" x="80" y="73" width="118" height="1"></rect>
                <circle id="Oval" opacity="0.400000006" cx="99" cy="127" r="19"></circle>
                <circle id="Oval" opacity="0.200000003" cx="600" cy="74" r="19"></circle>
                <circle id="Oval" opacity="0.300000012" cx="264" cy="126" r="10"></circle>
                <circle id="Oval" opacity="0.400000006" cx="456" cy="74" r="15"></circle>
                <circle id="Oval" opacity="0.200000003" cx="211" cy="73" r="13"></circle>
                <circle id="Oval" opacity="0.699999988" cx="495" cy="127" r="13"></circle>
                <circle id="Oval" opacity="0.200000003" cx="185" cy="182" r="15"></circle>
                <circle id="Oval" opacity="0.400000006" cx="366" cy="73" r="8"></circle>
                <circle id="Oval" opacity="0.5" cx="70" cy="72" r="10"></circle>
                <circle id="Oval" opacity="0.5" cx="118" cy="15" r="15"></circle>
                <circle id="Oval" opacity="0.200000003" cx="9" cy="15" r="9"></circle>
                <circle id="Oval" opacity="0.5" cx="352" cy="183" r="15"></circle>
                <circle id="Oval" opacity="0.100000001" cx="486" cy="183" r="10"></circle>
                <circle id="Oval" opacity="0.682175409" cx="65" cy="182" r="10"></circle>
            </g>
        </g>
    </g>
</svg>