<svg width="160" height="50" viewBox="0 0 160 50" version="1.1" xmlns="http://www.w3.org/2000/svg"><g id="Page-1" stroke="none" stroke-width="1" fill="none" fill-rule="evenodd"><path d="M.948 16.928V8.416c6.688 0 10.032-2.28 11.78-7.296h10.108V49H9.916V16.928H.948zm48.284 22.724c5.32 0 8.436-4.788 8.892-11.78-2.204 2.736-6.156 4.408-10.792 4.408-10.488 0-16.72-6.384-16.72-15.504C30.612 6.44 38.44.208 49.308.208 62.76.208 69.98 9.632 69.98 24.832c0 14.592-7.068 25.08-20.976 25.08-10.336 0-17.024-5.396-17.936-14.972l12.008-.228c.38 3.268 2.584 4.94 6.156 4.94zm6.84-23.18c0-3.572-2.432-6.156-6.536-6.156-4.256 0-6.688 2.508-6.688 6.156 0 3.8 2.432 6.308 6.688 6.308 4.104 0 6.536-2.508 6.536-6.308zm40.304-6.004c-5.32 0-8.436 4.788-8.892 11.78 2.204-2.736 6.156-4.408 10.792-4.408 10.488 0 16.72 6.384 16.72 15.504 0 10.336-7.828 16.568-18.696 16.568-13.452 0-20.672-9.424-20.672-24.624 0-14.592 7.068-25.08 20.976-25.08 10.336 0 17.024 5.396 17.936 14.972l-12.008.228c-.38-3.268-2.584-4.94-6.156-4.94zm-6.84 23.18c0 3.572 2.432 6.156 6.536 6.156 4.256 0 6.688-2.508 6.688-6.156 0-3.8-2.432-6.308-6.688-6.308-4.104 0-6.536 2.508-6.536 6.308zm50.26-24.092c-3.496 0-5.7 1.9-5.7 5.32 0 3.268 2.204 5.016 5.7 5.016 3.572 0 5.852-1.748 5.852-5.016 0-3.42-2.28-5.32-5.852-5.32zm0 19.228c-4.256 0-6.84 1.976-6.84 5.7s2.584 5.776 6.84 5.776 6.764-2.052 6.764-5.776c0-3.724-2.508-5.7-6.764-5.7zm0 21.128c-12.616 0-19.76-5.396-19.76-13.984 0-6.004 3.572-10.336 8.816-11.704-4.788-1.976-7.372-5.168-7.372-10.716 0-8.284 7.524-13.3 18.316-13.3 10.716 0 18.24 5.016 18.24 13.3 0 5.548-2.584 8.74-7.372 10.716 5.244 1.368 8.816 5.7 8.816 11.704 0 8.588-7.144 13.984-19.684 13.984z" id="1968" fill="#D4A96C" fill-rule="nonzero"/></g></svg>